<svg width="20" height="20" viewBox="0 0 16 16" fill="none" xmlns="http://www.w3.org/2000/svg">
<g clip-path="url(#clip0_8675_5798)">
<path fill-rule="evenodd" clip-rule="evenodd" d="M4.21875 5.56494L4.62075 10.3463C4.65008 10.7143 4.95075 10.9903 5.31808 10.9903H5.32075H12.5948H12.5961C12.9434 10.9903 13.2401 10.7316 13.2894 10.3883L13.9228 6.01561C13.9374 5.91161 13.9114 5.80761 13.8481 5.72361C13.7854 5.63894 13.6934 5.58427 13.5894 5.56961C13.4501 5.57494 7.66808 5.56694 4.21875 5.56494V5.56494ZM5.31705 11.9903C4.43905 11.9903 3.69571 11.305 3.62438 10.4283L3.01371 3.16566L2.00905 2.99232C1.73638 2.94432 1.55438 2.68632 1.60105 2.41366C1.64905 2.14099 1.91238 1.96366 2.17905 2.00632L3.56571 2.24632C3.78905 2.28566 3.95905 2.47099 3.97838 2.69766L4.13505 4.56499C13.6524 4.56899 13.683 4.57366 13.729 4.57899C14.1004 4.63299 14.427 4.82699 14.6497 5.12566C14.8724 5.42366 14.9657 5.79099 14.9124 6.15899L14.2797 10.531C14.1604 11.363 13.4377 11.9903 12.5977 11.9903H12.5944H5.32238H5.31705Z" fill="#006aff"/>
<path fill-rule="evenodd" clip-rule="evenodd" d="M11.5248 8.02905H9.67676C9.40009 8.02905 9.17676 7.80505 9.17676 7.52905C9.17676 7.25305 9.40009 7.02905 9.67676 7.02905H11.5248C11.8008 7.02905 12.0248 7.25305 12.0248 7.52905C12.0248 7.80505 11.8008 8.02905 11.5248 8.02905" fill="#006aff"/>
<path fill-rule="evenodd" clip-rule="evenodd" d="M5.03033 13.8013C5.23099 13.8013 5.39299 13.9633 5.39299 14.1639C5.39299 14.3646 5.23099 14.5273 5.03033 14.5273C4.82899 14.5273 4.66699 14.3646 4.66699 14.1639C4.66699 13.9633 4.82899 13.8013 5.03033 13.8013" fill="#006aff"/>
<mask id="mask0_8675_5798" style="mask-type:luminance" maskUnits="userSpaceOnUse" x="4" y="13" width="2" height="2">
<path fill-rule="evenodd" clip-rule="evenodd" d="M4.66895 14.1639C4.66895 14.3653 4.83095 14.5279 5.03295 14.5279V14.5279C5.23361 14.5279 5.39561 14.3653 5.39561 14.1639V14.1639C5.39561 13.9633 5.23361 13.8013 5.03295 13.8013V13.8013C4.83095 13.8013 4.66895 13.9633 4.66895 14.1639V14.1639Z" fill="white"/>
</mask>
<g mask="url(#mask0_8675_5798)">
<path fill-rule="evenodd" clip-rule="evenodd" d="M1.33594 17.8607H8.7286V10.468H1.33594V17.8607Z" fill="#006aff"/>
</g>
<path fill-rule="evenodd" clip-rule="evenodd" d="M5.03613 14.0273C4.96079 14.0273 4.89946 14.0886 4.89946 14.1639C4.89946 14.3153 5.17346 14.3153 5.17346 14.1639C5.17346 14.0886 5.11146 14.0273 5.03613 14.0273M5.03454 15.0273C4.55854 15.0273 4.17188 14.6399 4.17188 14.1639C4.17188 13.6879 4.55854 13.3013 5.03454 13.3013C5.51054 13.3013 5.89788 13.6879 5.89788 14.1639C5.89788 14.6399 5.51054 15.0273 5.03454 15.0273" fill="#006aff"/>
<path fill-rule="evenodd" clip-rule="evenodd" d="M12.5538 13.8013C12.7544 13.8013 12.9171 13.9633 12.9171 14.1639C12.9171 14.3646 12.7544 14.5273 12.5538 14.5273C12.3524 14.5273 12.1904 14.3646 12.1904 14.1639C12.1904 13.9633 12.3524 13.8013 12.5538 13.8013" fill="#006aff"/>
<mask id="mask1_8675_5798" style="mask-type:luminance" maskUnits="userSpaceOnUse" x="12" y="13" width="1" height="2">
<path fill-rule="evenodd" clip-rule="evenodd" d="M12.1875 14.1637C12.1875 14.365 12.3495 14.5277 12.5508 14.5277V14.5277C12.7508 14.5277 12.9142 14.365 12.9142 14.1637V14.1637C12.9142 13.963 12.7508 13.801 12.5508 13.801V13.801C12.3495 13.801 12.1875 13.963 12.1875 14.1637V14.1637Z" fill="white"/>
</mask>
<g mask="url(#mask1_8675_5798)">
<path fill-rule="evenodd" clip-rule="evenodd" d="M8.85449 17.8604H16.2478V10.4678H8.85449V17.8604Z" fill="#006aff"/>
</g>
<path fill-rule="evenodd" clip-rule="evenodd" d="M12.5514 14.0273C12.4767 14.0273 12.4154 14.0887 12.4154 14.164C12.4161 14.3167 12.6894 14.3153 12.6887 14.164C12.6887 14.0887 12.6267 14.0273 12.5514 14.0273M12.5502 15.0273C12.0742 15.0273 11.6875 14.6399 11.6875 14.1639C11.6875 13.6879 12.0742 13.3013 12.5502 13.3013C13.0268 13.3013 13.4142 13.6879 13.4142 14.1639C13.4142 14.6399 13.0268 15.0273 12.5502 15.0273" fill="#006aff"/>
</g>
<defs>
<clipPath id="clip0_8675_5798">
<rect width="16" height="16" fill="white"/>
</clipPath>
</defs>
</svg>
