<svg width="19" height="19" viewBox="0 0 19 19" fill="none" xmlns="http://www.w3.org/2000/svg">
<g clip-path="url(#clip0_8720_2294)">
<path d="M16.1484 7.17808C15.3609 3.71308 12.3384 2.15308 9.68342 2.15308C9.68342 2.15308 9.68342 2.15308 9.67592 2.15308C7.02842 2.15308 3.99842 3.70558 3.21092 7.17058C2.33342 11.0406 4.70342 14.3181 6.84842 16.3806C7.64342 17.1456 8.66342 17.5281 9.68342 17.5281C10.7034 17.5281 11.7234 17.1456 12.5109 16.3806C14.6559 14.3181 17.0259 11.0481 16.1484 7.17808ZM9.68342 10.9356C8.37842 10.9356 7.32092 9.87808 7.32092 8.57308C7.32092 7.26808 8.37842 6.21058 9.68342 6.21058C10.9884 6.21058 12.0459 7.26808 12.0459 8.57308C12.0459 9.87808 10.9884 10.9356 9.68342 10.9356Z" fill="#B6349A"/>
</g>
<defs>
<clipPath id="clip0_8720_2294">
<rect width="18" height="18" fill="white" transform="translate(0.681641 0.840576)"/>
</clipPath>
</defs>
</svg>
