<svg width="17" height="17" viewBox="0 0 17 17" fill="none" xmlns="http://www.w3.org/2000/svg">
<path d="M14.7765 4.51926C12.4743 4.29111 10.1582 4.17358 7.84907 4.17358C6.48018 4.17358 5.11129 4.24272 3.7424 4.38099L2.33203 4.51926" stroke="#0D0C0D" stroke-width="1.2" stroke-linecap="round" stroke-linejoin="round"/>
<path d="M6.13477 3.82091L6.28686 2.91523C6.39748 2.25844 6.48044 1.76758 7.64884 1.76758H9.4602C10.6286 1.76758 10.7185 2.2861 10.8222 2.92215L10.9743 3.82091" stroke="#0D0C0D" stroke-width="1.2" stroke-linecap="round" stroke-linejoin="round"/>
<path d="M13.29 6.7041L12.8406 13.6661C12.7645 14.7515 12.7023 15.595 10.7734 15.595H6.3349C4.40601 15.595 4.34379 14.7515 4.26774 13.6661L3.81836 6.7041" stroke="#0D0C0D" stroke-width="1.2" stroke-linecap="round" stroke-linejoin="round"/>
<path d="M7.40039 11.7925H9.70261" stroke="#0D0C0D" stroke-width="1.2" stroke-linecap="round" stroke-linejoin="round"/>
<path d="M6.82617 9.02686H10.283" stroke="#0D0C0D" stroke-width="1.2" stroke-linecap="round" stroke-linejoin="round"/>
</svg>
